<?xml version="1.0" encoding="iso-8859-1"?>
<!-- Generator: Adobe Illustrator 18.0.0, SVG Export Plug-In . SVG Version: 6.00 Build 0)  -->
<!DOCTYPE svg PUBLIC "-//W3C//DTD SVG 1.1//EN" "http://www.w3.org/Graphics/SVG/1.1/DTD/svg11.dtd">
<svg version="1.1" id="Capa_1" xmlns="http://www.w3.org/2000/svg" xmlns:xlink="http://www.w3.org/1999/xlink" x="0px" y="0px"
	 viewBox="0 0 489.906 489.906" style="enable-background:new 0 0 489.906 489.906;" xml:space="preserve">
<g>
	<path d="M244.953,268.406c-45.767,0-83,37.233-83,83s37.233,83,83,83s83-37.233,83-83S290.72,268.406,244.953,268.406z
		 M244.953,413.406c-34.187,0-62-27.813-62-62s27.813-62,62-62s62,27.813,62,62S279.14,413.406,244.953,413.406z"/>
	<path d="M152.972,0.006c-4.266,0.024-8.507,0.999-12.458,2.918L78.362,33.109c-14.347,6.967-20.351,24.308-13.384,38.655
		l86.306,177.717c-27.541,25.331-44.831,61.645-44.831,101.925c0,76.369,62.131,138.5,138.5,138.5s138.5-62.131,138.5-138.5
		c0-40.28-17.29-76.595-44.832-101.925l86.306-177.717c6.967-14.347,0.963-31.687-13.384-38.654L349.392,2.924
		c-3.963-1.924-8.218-2.9-12.496-2.918V0H152.972V0.006z M219.526,99.406h50.854l-25.427,52.358L219.526,99.406z M280.579,78.406
		h-71.251L181.448,21h127.009L280.579,78.406z M83.869,62.591C81.96,58.66,83.605,53.909,87.537,52l62.152-30.186
		c1.905-0.925,4.055-1.052,6.055-0.36c2,0.692,3.611,2.123,4.536,4.028l91.096,187.579c-2.129-0.098-4.269-0.154-6.422-0.154
		c-28.379,0-54.788,8.585-76.776,23.286L83.869,62.591z M362.453,351.406c0,64.79-52.71,117.5-117.5,117.5s-117.5-52.71-117.5-117.5
		c0-64.789,52.71-117.5,117.5-117.5S362.453,286.617,362.453,351.406z M406.037,62.591l-84.308,173.602
		c-13.612-9.101-28.916-15.858-45.335-19.684l-19.769-40.708l73-150.32c0.925-1.904,2.536-3.335,4.536-4.027
		c1.999-0.692,4.15-0.565,6.055,0.36L402.37,52C406.301,53.909,407.946,58.66,406.037,62.591z"/>
</g>
<g>
</g>
<g>
</g>
<g>
</g>
<g>
</g>
<g>
</g>
<g>
</g>
<g>
</g>
<g>
</g>
<g>
</g>
<g>
</g>
<g>
</g>
<g>
</g>
<g>
</g>
<g>
</g>
<g>
</g>
</svg>
